<?xml version="1.0" standalone="no"?>
<!DOCTYPE svg PUBLIC "-//W3C//DTD SVG 20010904//EN"
 "http://www.w3.org/TR/2001/REC-SVG-20010904/DTD/svg10.dtd">
<svg version="1.0" xmlns="http://www.w3.org/2000/svg"
 width="512.000000pt" height="512.000000pt" viewBox="0 0 512.000000 512.000000"
 preserveAspectRatio="xMidYMid meet">

<g transform="translate(0.000000,512.000000) scale(0.100000,-0.100000)"
fill="#000000" stroke="none">
<path d="M2476 3529 c-751 -79 -1411 -586 -1686 -1294 -20 -52 -29 -64 -33
-50 -3 11 -25 116 -47 234 -23 118 -48 227 -56 243 -20 39 -68 61 -116 55 -46
-6 -75 -29 -95 -75 -13 -30 -7 -67 77 -503 49 -258 97 -483 105 -499 18 -35
62 -60 104 -60 35 0 64 19 516 341 200 143 326 239 333 255 7 14 12 43 12 65
0 70 -69 120 -143 105 -18 -4 -126 -75 -252 -165 -121 -87 -221 -157 -223
-156 -2 2 13 47 34 101 162 435 481 785 899 989 379 185 769 231 1184 139 621
-138 1130 -605 1316 -1209 20 -66 44 -140 52 -163 37 -107 176 -110 219 -5 13
30 12 43 -5 116 -135 563 -541 1070 -1066 1330 -348 173 -749 246 -1129 206z"/>
</g>
</svg>
